<svg width="215" height="90" viewBox="0 0 215 90" fill="none" xmlns="http://www.w3.org/2000/svg">
<rect x="0.5" y="0.651337" width="213.462" height="88.8487" rx="7.85297" fill="#181728" stroke="white"/>
<path d="M27.5352 73.5353V19.7738H37.673V73.5353H27.5352ZM13.8644 73.5353V65.0103H51.3438V73.5353H13.8644ZM13.8644 28.2989V19.7738H51.3438V28.2989H13.8644Z" fill="white"/>
<path d="M192.295 56.8111L183.798 65.9257C183.614 66.1237 183.391 66.2817 183.144 66.3898C182.896 66.4979 182.629 66.5539 182.359 66.5541H142.081C141.889 66.554 141.701 66.4978 141.54 66.3925C141.379 66.2872 141.253 66.1373 141.176 65.9612C141.099 65.785 141.075 65.5903 141.107 65.4008C141.139 65.2113 141.226 65.0353 141.357 64.8943L149.844 55.7797C150.028 55.5817 150.25 55.4238 150.498 55.3156C150.745 55.2075 151.012 55.1516 151.282 55.1513H191.561C191.755 55.1473 191.946 55.2007 192.109 55.3049C192.273 55.4091 192.402 55.5594 192.48 55.7368C192.559 55.9142 192.583 56.1109 192.55 56.302C192.517 56.4932 192.428 56.6703 192.295 56.8111ZM183.798 38.4524C183.613 38.2553 183.39 38.098 183.143 37.9899C182.896 37.8819 182.629 37.8254 182.359 37.824H142.081C141.889 37.8241 141.701 37.8802 141.54 37.9856C141.379 38.0909 141.253 38.2408 141.176 38.4169C141.099 38.5931 141.075 38.7878 141.107 38.9773C141.139 39.1668 141.226 39.3428 141.357 39.4838L149.844 48.6032C150.028 48.8003 150.251 48.9576 150.498 49.0657C150.746 49.1737 151.012 49.2302 151.282 49.2316H191.561C191.753 49.2306 191.94 49.1737 192.1 49.0681C192.26 48.9624 192.386 48.8124 192.462 48.6365C192.538 48.4605 192.562 48.2662 192.529 48.0771C192.497 47.8881 192.41 47.7125 192.28 47.5718L183.798 38.4524ZM142.081 31.9043H182.359C182.629 31.9041 182.896 31.8482 183.144 31.74C183.391 31.6319 183.614 31.4739 183.798 31.2759L192.295 22.1613C192.394 22.056 192.469 21.9299 192.515 21.7922C192.56 21.6544 192.574 21.5084 192.556 21.3644C192.539 21.2205 192.489 21.0823 192.412 20.9597C192.335 20.837 192.231 20.733 192.109 20.655C191.945 20.5509 191.755 20.4975 191.561 20.5015H151.282C151.012 20.5018 150.745 20.5577 150.498 20.6658C150.25 20.774 150.028 20.9319 149.844 21.1299L141.357 30.2445C141.226 30.3855 141.139 30.5615 141.107 30.751C141.075 30.9405 141.099 31.1352 141.176 31.3114C141.253 31.4875 141.379 31.6374 141.54 31.7427C141.701 31.8481 141.889 31.9042 142.081 31.9043Z" fill="white"/>
<path d="M79.4005 18.9091H89.9784V24.1981H89.8752L89.9784 24.2626V29.2936L89.9784 24.1981H95.2674V29.4871L95.2029 29.4871L95.2674 29.6438V29.4871H99.5006L100.556 28.3071V24.1981H105.845V18.9091H116.423V24.1981H116.165L116.294 24.2626L116.423 24.3763V24.1981H121.712V29.0356L122.225 29.4871H127.001V45.354H121.804L121.712 45.448V50.643H116.662L116.423 50.8881V55.932H111.52L111.134 56.3282V61.221H106.377L105.845 61.7683V66.51H101.235L100.556 67.2084V71.7989H95.2674V67.2032L94.5947 66.51H89.9784V61.7528L89.4624 61.221H84.6894V56.3023L84.3301 55.932H79.4005V50.8518L79.1979 50.643H74.1115V45.4013L74.0656 45.354H68.8225V29.4871H74.1115V24.1981H79.4005V24.2065L79.4101 24.1981H79.4005V18.9091Z" fill="url(#paint0_linear_1_229)"/>
<defs>
<linearGradient id="paint0_linear_1_229" x1="73.7324" y1="73.0606" x2="122.347" y2="19.1421" gradientUnits="userSpaceOnUse">
<stop offset="0.08" stop-color="#9945FF"/>
<stop offset="0.3" stop-color="#8752F3"/>
<stop offset="0.5" stop-color="#5497D5"/>
<stop offset="0.6" stop-color="#43B4CA"/>
<stop offset="0.72" stop-color="#28E0B9"/>
<stop offset="0.97" stop-color="#19FB9B"/>
</linearGradient>
</defs>
</svg>
